<svg width="163" height="57" viewBox="0 0 163 57" fill="none" xmlns="http://www.w3.org/2000/svg">
<path opacity="0.4" d="M162.5 51.5L157.092 49.4778L158.045 55.1722L162.5 51.5ZM0.581282 1.27327C1.04105 1.97775 1.50664 2.67525 1.97801 3.36577L2.80393 2.80197C2.33647 2.11719 1.87472 1.42545 1.41872 0.726732L0.581282 1.27327ZM4.89105 7.44626C5.89589 8.79253 6.9243 10.1101 7.976 11.399L8.7508 10.7668C7.70826 9.48909 6.68871 8.18291 5.69244 6.84812L4.89105 7.44626ZM11.2308 15.2137C12.3475 16.4655 13.4879 17.6877 14.6518 18.8806L15.3676 18.1822C14.2141 17.0001 13.0838 15.7887 11.977 14.548L11.2308 15.2137ZM18.2341 22.3905C19.4564 23.5353 20.7023 24.6501 21.9713 25.7353L22.6212 24.9752C21.3636 23.8999 20.129 22.7951 18.9177 21.6606L18.2341 22.3905ZM25.8559 28.9077C27.1741 29.9356 28.5153 30.9337 29.8791 31.9022L30.4581 31.0868C29.1064 30.127 27.7772 29.1378 26.4708 28.1191L25.8559 28.9077ZM34.0317 34.7143C35.4336 35.6193 36.8576 36.4949 38.3034 37.3413L38.8086 36.4784C37.3753 35.6392 35.9636 34.7711 34.574 33.8741L34.0317 34.7143ZM42.684 39.7819C44.1562 40.5616 45.6493 41.3129 47.163 42.0359L47.594 41.1336C46.0927 40.4165 44.6119 39.6714 43.1521 38.8982L42.684 39.7819ZM51.7302 44.1049C53.2591 44.761 54.8077 45.3898 56.3755 45.9913L56.7337 45.0577C55.1779 44.4607 53.6414 43.8368 52.1245 43.186L51.7302 44.1049ZM61.0895 47.6986C62.6626 48.2354 64.254 48.7461 65.8634 49.231L66.1519 48.2736C64.5539 47.7921 62.974 47.285 61.4124 46.7522L61.0895 47.6986ZM70.6837 50.5921C72.2879 51.0154 73.9089 51.4142 75.5465 51.7885L75.7693 50.8137C74.1424 50.4418 72.5322 50.0456 70.9389 49.6252L70.6837 50.5921ZM80.4449 52.8261C82.0722 53.144 83.715 53.4389 85.373 53.7107L85.5348 52.7239C83.8866 52.4537 82.2538 52.1606 80.6366 51.8447L80.4449 52.8261ZM90.3254 54.4485C91.9687 54.6691 93.6262 54.868 95.2977 55.0452L95.4032 54.0508C93.7407 53.8745 92.0924 53.6767 90.4585 53.4574L90.3254 54.4485ZM100.286 55.507C101.94 55.6381 103.607 55.7488 105.286 55.8393L105.34 54.8407C103.669 54.7507 102.01 54.6406 100.365 54.5101L100.286 55.507ZM110.288 56.0474C111.942 56.0963 113.608 56.1262 115.286 56.1371L115.293 55.1371C113.622 55.1263 111.964 55.0965 110.317 55.0478L110.288 56.0474ZM120.288 56.114C121.945 56.0881 123.613 56.0443 125.292 55.9827L125.255 54.9833C123.583 55.0448 121.922 55.0884 120.272 55.1141L120.288 56.114ZM130.296 55.7477C131.951 55.6533 133.615 55.5421 135.29 55.414L135.214 54.4169C133.545 54.5445 131.887 54.6553 130.239 54.7493L130.296 55.7477ZM140.267 54.9866C141.916 54.8297 143.574 54.6569 145.241 54.4683L145.129 53.4746C143.467 53.6626 141.815 53.8348 140.172 53.9911L140.267 54.9866ZM150.213 53.8625C151.857 53.648 153.51 53.4184 155.171 53.1739L155.025 52.1846C153.369 52.4283 151.722 52.6571 150.083 52.8709L150.213 53.8625Z" fill="#161612"/>
</svg>
