<svg xmlns="http://www.w3.org/2000/svg" xmlns:xlink="http://www.w3.org/1999/xlink" version="1.1"
    x="0px" y="0px" viewBox="0 0 100 125" enable-background="new 0 0 100 100" xml:space="preserve"><g><path d="M82.866,43.173C82.866,43.173,82.866,43.173,82.866,43.173c-0.64,0-1.099-0.731-1.236-0.978l-5.836-6.043   c-0.56-0.349-0.821-0.737-0.777-1.154c0.075-0.711,1.02-1.074,1.208-1.14l9.982-3.126c0.164-0.037,0.287-0.051,0.399-0.051   c0.413,0,0.635,0.19,0.749,0.35c0.322,0.452,0.113,1.126,0.068,1.256L83.95,42.16C83.674,42.837,83.312,43.173,82.866,43.173z    M86.606,31.431c-0.059,0-0.128,0.009-0.207,0.026l-9.939,3.114c-0.304,0.107-0.682,0.354-0.698,0.505   c-0.006,0.063,0.083,0.231,0.462,0.46l0.076,0.061l5.967,6.201c0.155,0.295,0.444,0.625,0.598,0.625   c0.058,0,0.212-0.111,0.383-0.529l3.466-9.854c0.066-0.196,0.093-0.485,0.029-0.574C86.722,31.434,86.64,31.431,86.606,31.431z"/></g><g><path d="M30.92,69.315c-0.204,0-0.372-0.164-0.375-0.369c-0.003-0.207,0.162-0.378,0.369-0.381   c0.646-0.011,1.309-0.046,1.971-0.104c0.203-0.021,0.388,0.134,0.406,0.341c0.018,0.206-0.134,0.388-0.341,0.406   c-0.68,0.06-1.361,0.096-2.024,0.107C30.925,69.315,30.922,69.315,30.92,69.315z M28.922,69.273c-0.008,0-0.015,0-0.023,0   c-0.677-0.041-1.356-0.108-2.019-0.202c-0.205-0.029-0.348-0.218-0.319-0.423c0.029-0.206,0.221-0.355,0.423-0.319   c0.644,0.091,1.302,0.156,1.959,0.195c0.207,0.012,0.364,0.19,0.352,0.397C29.284,69.12,29.119,69.273,28.922,69.273z    M34.901,68.97c-0.182,0-0.342-0.133-0.37-0.318c-0.031-0.205,0.109-0.396,0.313-0.428c0.648-0.1,1.296-0.219,1.944-0.358   c0.198-0.043,0.402,0.085,0.445,0.288c0.043,0.203-0.085,0.402-0.288,0.445c-0.663,0.142-1.325,0.265-1.987,0.366   C34.939,68.968,34.92,68.97,34.901,68.97z M24.968,68.71c-0.028,0-0.056-0.003-0.084-0.01c-0.658-0.151-1.316-0.333-1.958-0.542   c-0.197-0.064-0.305-0.275-0.241-0.472s0.274-0.305,0.472-0.241c0.621,0.201,1.258,0.377,1.894,0.524   c0.202,0.046,0.328,0.248,0.281,0.449C25.293,68.593,25.139,68.71,24.968,68.71z M38.811,68.136c-0.166,0-0.316-0.11-0.362-0.277   c-0.054-0.2,0.063-0.406,0.264-0.46c0.634-0.172,1.267-0.361,1.899-0.566c0.2-0.063,0.409,0.044,0.473,0.241   c0.063,0.197-0.044,0.409-0.241,0.473c-0.644,0.208-1.289,0.4-1.934,0.576C38.876,68.131,38.843,68.136,38.811,68.136z    M21.169,67.477c-0.049,0-0.099-0.01-0.147-0.03c-0.618-0.263-1.234-0.558-1.833-0.877c-0.183-0.098-0.252-0.325-0.155-0.507   c0.097-0.184,0.325-0.252,0.507-0.155c0.58,0.309,1.176,0.595,1.774,0.849c0.19,0.081,0.279,0.301,0.198,0.492   C21.454,67.392,21.315,67.477,21.169,67.477z M42.615,66.906c-0.152,0-0.295-0.093-0.352-0.244   c-0.072-0.194,0.026-0.41,0.221-0.482c0.617-0.23,1.232-0.475,1.846-0.732c0.192-0.081,0.411,0.01,0.491,0.201   s-0.01,0.411-0.201,0.491c-0.622,0.261-1.247,0.51-1.874,0.744C42.703,66.898,42.659,66.906,42.615,66.906z M17.643,65.601   c-0.069,0-0.14-0.02-0.203-0.06c-0.56-0.361-1.118-0.754-1.658-1.168c-0.165-0.125-0.196-0.361-0.07-0.525   c0.125-0.164,0.36-0.197,0.525-0.07c0.525,0.401,1.067,0.783,1.61,1.134c0.174,0.112,0.224,0.344,0.111,0.519   C17.887,65.54,17.766,65.601,17.643,65.601z M46.305,65.359c-0.141,0-0.277-0.08-0.34-0.217c-0.087-0.188-0.005-0.411,0.183-0.498   c0.6-0.278,1.197-0.567,1.79-0.867c0.186-0.094,0.411-0.019,0.504,0.166c0.093,0.185,0.019,0.411-0.166,0.504   c-0.601,0.303-1.205,0.596-1.813,0.878C46.412,65.348,46.358,65.359,46.305,65.359z M49.879,63.557   c-0.133,0-0.262-0.071-0.33-0.196c-0.099-0.182-0.032-0.41,0.15-0.509c0.584-0.317,1.164-0.644,1.739-0.979   c0.18-0.104,0.409-0.043,0.513,0.136c0.104,0.179,0.043,0.409-0.136,0.513c-0.582,0.338-1.168,0.668-1.758,0.989   C50.001,63.542,49.94,63.557,49.879,63.557z M14.468,63.177c-0.089,0-0.178-0.031-0.249-0.095   c-0.493-0.438-0.986-0.908-1.466-1.396c-0.145-0.148-0.143-0.385,0.005-0.53c0.148-0.145,0.386-0.143,0.53,0.005   c0.468,0.476,0.948,0.934,1.429,1.361c0.155,0.138,0.169,0.375,0.031,0.529C14.674,63.134,14.571,63.177,14.468,63.177z    M53.347,61.543c-0.126,0-0.249-0.063-0.32-0.178c-0.108-0.176-0.054-0.407,0.123-0.516c0.566-0.349,1.126-0.704,1.682-1.066   c0.174-0.113,0.406-0.063,0.519,0.11c0.113,0.174,0.063,0.406-0.11,0.519c-0.561,0.365-1.127,0.724-1.698,1.076   C53.481,61.525,53.414,61.543,53.347,61.543z M56.699,59.364c-0.12,0-0.237-0.057-0.31-0.164c-0.117-0.171-0.073-0.404,0.098-0.521   c0.551-0.376,1.096-0.758,1.635-1.143c0.169-0.121,0.403-0.081,0.523,0.087c0.12,0.169,0.082,0.403-0.087,0.523   c-0.542,0.388-1.092,0.772-1.647,1.151C56.845,59.343,56.771,59.364,56.699,59.364z M59.957,57.037   c-0.115,0-0.228-0.052-0.301-0.151c-0.124-0.167-0.089-0.401,0.077-0.525c0.537-0.4,1.067-0.803,1.589-1.207   c0.165-0.127,0.4-0.097,0.526,0.067c0.127,0.164,0.097,0.399-0.067,0.526c-0.526,0.407-1.059,0.813-1.6,1.216   C60.113,57.013,60.035,57.037,59.957,57.037z M63.124,54.585c-0.109,0-0.218-0.048-0.292-0.14   c-0.129-0.162-0.104-0.397,0.058-0.527c0.525-0.421,1.04-0.843,1.546-1.263c0.159-0.132,0.396-0.111,0.528,0.048   c0.132,0.159,0.11,0.396-0.049,0.528c-0.509,0.423-1.028,0.847-1.556,1.271C63.289,54.558,63.206,54.585,63.124,54.585z    M66.204,52.024c-0.105,0-0.21-0.044-0.284-0.13c-0.135-0.157-0.117-0.394,0.04-0.529c0.513-0.441,1.016-0.879,1.505-1.313   c0.155-0.137,0.392-0.123,0.529,0.032c0.137,0.155,0.123,0.392-0.032,0.529c-0.493,0.436-0.997,0.877-1.513,1.32   C66.378,51.995,66.291,52.024,66.204,52.024z M69.203,49.368c-0.102,0-0.203-0.041-0.277-0.122c-0.14-0.153-0.129-0.39,0.024-0.53   c0.504-0.46,0.993-0.914,1.466-1.358c0.15-0.143,0.388-0.135,0.53,0.016c0.142,0.15,0.135,0.388-0.016,0.53   c-0.475,0.447-0.966,0.903-1.474,1.366C69.384,49.335,69.293,49.368,69.203,49.368z M72.122,46.622   c-0.098,0-0.196-0.038-0.27-0.114c-0.144-0.149-0.14-0.386,0.009-0.53c0.499-0.482,0.974-0.95,1.426-1.401   c0.147-0.146,0.384-0.146,0.53,0.001c0.146,0.146,0.146,0.384-0.001,0.53c-0.454,0.453-0.933,0.923-1.434,1.409   C72.31,46.586,72.216,46.622,72.122,46.622z M74.962,43.791c-0.094,0-0.189-0.035-0.262-0.106c-0.148-0.145-0.151-0.382-0.007-0.53   c0.504-0.518,0.967-1.001,1.385-1.443c0.142-0.15,0.38-0.157,0.53-0.015c0.151,0.142,0.158,0.379,0.015,0.53   c-0.42,0.445-0.886,0.932-1.393,1.452C75.157,43.752,75.06,43.791,74.962,43.791z M77.717,40.872c-0.09,0-0.181-0.032-0.253-0.098   c-0.153-0.139-0.164-0.376-0.024-0.53c0.862-0.945,1.329-1.494,1.331-1.497c0.135-0.157,0.371-0.176,0.529-0.042   c0.158,0.134,0.177,0.371,0.042,0.529c0,0-0.473,0.556-1.349,1.516C77.92,40.831,77.819,40.872,77.717,40.872z"/></g></svg>